<svg xmlns="http://www.w3.org/2000/svg" width="48" height="48" fill="none"><path fill="#2E2C2B" d="M0 0h48v48H0z"/><path fill="#fff" d="M36.41 15.539a9.658 9.658 0 0 1-1.257.473 5.797 5.797 0 0 0 1.132-2.056.442.442 0 0 0-.138-.471.408.408 0 0 0-.475-.034 9.712 9.712 0 0 1-2.926 1.194A5.516 5.516 0 0 0 28.84 13c-3.078 0-5.582 2.588-5.582 5.768 0 .25.015.5.046.746-3.82-.347-7.37-2.287-9.808-5.378a.413.413 0 0 0-.687.056 5.914 5.914 0 0 0-.756 2.9c0 1.39.48 2.709 1.328 3.74a4.652 4.652 0 0 1-.747-.345.407.407 0 0 0-.412.002.436.436 0 0 0-.21.367l-.001.077c0 2.074 1.08 3.942 2.732 4.96a4.692 4.692 0 0 1-.425-.063.411.411 0 0 0-.392.138.444.444 0 0 0-.086.42c.612 1.972 2.186 3.423 4.089 3.866a9.639 9.639 0 0 1-5.278 1.557c-.396 0-.793-.024-1.182-.072a.419.419 0 0 0-.444.284.441.441 0 0 0 .168.511A14.699 14.699 0 0 0 19.333 35c5.682 0 9.237-2.77 11.218-5.093 2.471-2.897 3.888-6.731 3.888-10.52 0-.158-.002-.318-.007-.477a11.068 11.068 0 0 0 2.497-2.734.445.445 0 0 0-.027-.52.41.41 0 0 0-.491-.117Z"/></svg>