<svg width="60" height="61" viewBox="0 0 60 61" fill="none" xmlns="http://www.w3.org/2000/svg">
    <path
        d="M18.3476 25.5219L30 13.8694L41.658 25.5269L48.4379 18.7469L30 0.309387L11.5681 18.7414L18.3478 25.5214L18.3476 25.5219ZM0.00012207 30.3094L6.78033 23.5282L13.5601 30.3079L6.77985 37.0882L0.00012207 30.3094ZM18.3476 35.0976L30 46.7494L41.6577 35.0921L48.4413 41.8685L48.4379 41.8721L30 60.3094L11.5681 41.8774L11.5585 41.8678L18.3483 35.0969L18.3476 35.0976ZM46.4399 30.3123L53.2201 23.532L59.9999 30.3118L53.2199 37.092L46.4399 30.3123Z"
        fill="#F3BA2F" />
    <path
        d="M36.8764 30.3058H36.8793L30 23.426L24.9151 28.5094L24.331 29.0938L23.1262 30.2988L23.1166 30.3082L23.1262 30.318L30 37.1929L36.8798 30.313L36.8832 30.3092L36.8769 30.3058"
        fill="#F3BA2F" />
</svg>