<svg width="242" height="104" viewBox="0 0 242 104" fill="none" xmlns="http://www.w3.org/2000/svg">
    <g opacity="0.7">
        <g filter="url(#filter0_f_208_110)">
            <ellipse cx="208.32" cy="34.005" rx="11.2376" ry="12.0702" transform="rotate(29 208.32 34.005)"
                fill="url(#paint0_linear_208_110)" />
        </g>
        <g filter="url(#filter1_d_208_110)">
            <path
                d="M208.33 33.6912C208.33 33.6912 198.035 56.6246 189.026 56.6246C180.017 56.6246 176.157 43.3473 164.574 43.3473C152.991 43.3473 138.835 77.1439 127.252 77.1439C115.67 77.1439 101.513 56.6246 93.7913 56.6246C86.0696 56.6246 77.0609 72.3158 62.9044 72.3158C50.3023 72.3158 50.3023 64.3256 46.1739 66.4767C42.0455 68.6278 38.1968 68.6581 31.8897 62.1358C25.5826 55.6135 20.8807 68.5891 14 62.1358"
                stroke="url(#paint1_linear_208_110)" stroke-width="3.62597" stroke-linecap="round"
                stroke-linejoin="round" />
        </g>
    </g>
    <defs>
        <filter id="filter0_f_208_110" x="175.544" y="0.787781" width="65.5509" height="66.4343"
            filterUnits="userSpaceOnUse" color-interpolation-filters="sRGB">
            <feFlood flood-opacity="0" result="BackgroundImageFix" />
            <feBlend mode="normal" in="SourceGraphic" in2="BackgroundImageFix" result="shape" />
            <feGaussianBlur stdDeviation="10.6674" result="effect1_foregroundBlur_208_110" />
        </filter>
        <filter id="filter1_d_208_110" x="0.100438" y="31.8777" width="222.13" height="71.2523"
            filterUnits="userSpaceOnUse" color-interpolation-filters="sRGB">
            <feFlood flood-opacity="0" result="BackgroundImageFix" />
            <feColorMatrix in="SourceAlpha" type="matrix" values="0 0 0 0 0 0 0 0 0 0 0 0 0 0 0 0 0 0 127 0"
                result="hardAlpha" />
            <feOffset dy="12.0866" />
            <feGaussianBlur stdDeviation="6.04329" />
            <feColorMatrix type="matrix" values="0 0 0 0 0.0456816 0 0 0 0 0.0410428 0 0 0 0 0.12686 0 0 0 0.54362 0" />
            <feBlend mode="normal" in2="BackgroundImageFix" result="effect1_dropShadow_208_110" />
            <feBlend mode="normal" in="SourceGraphic" in2="effect1_dropShadow_208_110" result="shape" />
        </filter>
        <linearGradient id="paint0_linear_208_110" x1="207.848" y1="49.3736" x2="210.214" y2="32.6868"
            gradientUnits="userSpaceOnUse">
            <stop stop-color="#FF62B8" stop-opacity="0.01" />
            <stop offset="0.924507" stop-color="#FE33D1" />
        </linearGradient>
        <linearGradient id="paint1_linear_208_110" x1="88.3075" y1="22.1869" x2="112.563" y2="105.145"
            gradientUnits="userSpaceOnUse">
            <stop stop-color="#A330FF" stop-opacity="0.01" />
            <stop offset="0.393247" stop-color="#BC3DCB" />
            <stop offset="1" stop-color="#E3507A" />
        </linearGradient>
    </defs>
</svg>