<svg width="72" height="83" viewBox="0 0 72 83" fill="none" xmlns="http://www.w3.org/2000/svg">
    <g opacity="0.5" clip-path="url(#clip0_208_124)">
        <path
            d="M54.2092 29.0412C52.9151 28.3018 51.2513 28.3018 49.7724 29.0412L39.4198 35.1418L32.3949 39.024L22.2273 45.1246C20.9332 45.8641 19.2694 45.8641 17.7905 45.1246L9.84121 40.3181C8.54714 39.5786 7.62281 38.0997 7.62281 36.4359V27.1926C7.62281 25.7136 8.36228 24.2347 9.84121 23.3104L17.7905 18.6887C19.0845 17.9493 20.7483 17.9493 22.2273 18.6887L30.1765 23.4953C31.4706 24.2347 32.3949 25.7137 32.3949 27.3774V33.478L39.4198 29.411V23.1255C39.4198 21.6466 38.6804 20.1677 37.2014 19.2433L22.4121 10.5546C21.1181 9.81513 19.4543 9.81513 17.9753 10.5546L2.81628 19.4282C1.33735 20.1677 0.597885 21.6466 0.597885 23.1255V40.503C0.597885 41.9819 1.33735 43.4608 2.81628 44.3852L17.7905 53.0739C19.0845 53.8134 20.7483 53.8134 22.2273 53.0739L32.3949 47.1582L39.4198 43.0911L49.5875 37.1754C50.8816 36.4359 52.5454 36.4359 54.0243 37.1754L61.9736 41.797C63.2676 42.5365 64.192 44.0154 64.192 45.6792V54.9226C64.192 56.4015 63.4525 57.8804 61.9736 58.8047L54.2092 63.4264C52.9151 64.1659 51.2513 64.1659 49.7724 63.4264L41.8231 58.8047C40.529 58.0653 39.6047 56.5863 39.6047 54.9226V49.0068L32.5798 53.0739V59.1745C32.5798 60.6534 33.3192 62.1323 34.7982 63.0567L49.7724 71.7454C51.0664 72.4849 52.7302 72.4849 54.2092 71.7454L69.1833 63.0567C70.4774 62.3172 71.4017 60.8383 71.4017 59.1745V41.6122C71.4017 40.1332 70.6623 38.6543 69.1833 37.73L54.2092 29.0412Z"
            fill="#8247E5" />
    </g>
    <defs>
        <clipPath id="clip0_208_124">
            <rect width="70.8039" height="82.3" fill="white" transform="translate(0.597885)" />
        </clipPath>
    </defs>
</svg>