<svg width="202" height="203" viewBox="0 0 202 203" fill="none" xmlns="http://www.w3.org/2000/svg">
<rect opacity="0.1" width="202" height="202" fill="#CD3ED0" fill-opacity="0.9"/>
<path fill-rule="evenodd" clip-rule="evenodd" d="M94.6675 34.2155C84.3423 35.8455 74.4041 42.1638 68.3811 50.9265C65.4583 55.1793 62.9967 61.4425 62.1151 66.8698C60.5626 76.4297 62.9594 87.2383 68.3811 95.1265C74.5022 104.032 84.4084 110.257 95.0193 111.867C103.607 113.169 111.525 111.826 119.365 107.737C137.798 98.1211 145.562 75.3054 136.741 56.67C132.597 47.9144 126.905 42.0809 118.414 37.8872C110.757 34.1049 102.982 32.9025 94.6675 34.2155ZM67.0981 124.012C50.1857 126.234 35.5332 138.342 30.1559 154.54C28.0602 160.853 28 161.588 28 180.953C28 198.388 28.0151 198.778 28.7254 199.729C29.1244 200.262 29.8878 201.025 30.4222 201.424L31.3939 202.148H101H170.606L171.578 201.424C172.112 201.025 172.876 200.262 173.275 199.729C173.985 198.778 174 198.388 174 180.953C174 165.061 173.931 162.827 173.359 160.162C169.448 141.922 156.441 128.811 137.94 124.46C135.529 123.893 132.464 123.833 102.407 123.767C84.3155 123.727 68.4265 123.838 67.0981 124.012Z" fill="url(#paint0_linear_49_909)"/>
<defs>
<linearGradient id="paint0_linear_49_909" x1="48.5897" y1="79.7868" x2="454.769" y2="79.7868" gradientUnits="userSpaceOnUse">
<stop stop-color="#CD3ED0"/>
<stop offset="0.46875" stop-color="#6B1495"/>
</linearGradient>
</defs>
</svg>
