<svg width="2100" height="1650" viewBox="0 0 2100 1650" fill="none" xmlns="http://www.w3.org/2000/svg">
<rect x="1783.69" y="800.641" width="165.973" height="165.973" transform="rotate(150 1783.69 800.641)" fill="#4E727C" fill-opacity="0.05"/>
<rect x="2099.91" y="618.07" width="165.973" height="165.973" transform="rotate(150 2099.91 618.07)" fill="#4E727C" fill-opacity="0.05"/>
<rect x="1917.34" y="301.848" width="165.973" height="165.973" transform="rotate(150 1917.34 301.848)" fill="#4E727C" fill-opacity="0.05"/>
<rect x="2008.62" y="459.959" width="165.973" height="165.973" transform="rotate(150 2008.62 459.959)" fill="#4E727C" fill-opacity="0.05"/>
<rect x="1826.05" y="143.737" width="165.973" height="165.973" transform="rotate(150 1826.05 143.737)" fill="#4E727C" fill-opacity="0.05"/>
<rect x="1692.4" y="642.53" width="165.973" height="165.973" transform="rotate(150 1692.4 642.53)" fill="#4E727C" fill-opacity="0.05"/>
<rect x="1509.83" y="326.308" width="165.973" height="165.973" transform="rotate(150 1509.83 326.308)" fill="#4E727C" fill-opacity="0.05"/>
<rect x="1625.57" y="891.926" width="165.973" height="165.973" transform="rotate(150 1625.57 891.926)" fill="#4E727C" fill-opacity="0.05"/>
<rect x="1443" y="575.704" width="165.973" height="165.973" transform="rotate(150 1443 575.704)" fill="#4E727C" fill-opacity="0.05"/>
<rect x="1941.8" y="709.355" width="165.973" height="165.973" transform="rotate(150 1941.8 709.355)" fill="#4E727C" fill-opacity="0.05"/>
<rect x="1759.23" y="393.134" width="165.973" height="165.973" transform="rotate(150 1759.23 393.134)" fill="#4E727C" fill-opacity="0.05"/>
<rect x="1850.51" y="551.245" width="165.973" height="165.973" transform="rotate(150 1850.51 551.245)" fill="#4E727C" fill-opacity="0.05"/>
<rect x="1667.94" y="235.022" width="165.973" height="165.973" transform="rotate(150 1667.94 235.022)" fill="#4E727C" fill-opacity="0.05"/>
<rect x="1534.29" y="733.815" width="165.973" height="165.973" transform="rotate(150 1534.29 733.815)" fill="#00C6FD" fill-opacity="0.05"/>
<rect x="1351.72" y="417.593" width="165.973" height="165.973" transform="rotate(150 1351.72 417.593)" fill="#4E727C" fill-opacity="0.05"/>
<rect x="1467.46" y="983.211" width="165.973" height="165.973" transform="rotate(150 1467.46 983.211)" fill="#4E727C" fill-opacity="0.05"/>
<rect x="1376.18" y="825.101" width="165.973" height="165.973" transform="rotate(150 1376.18 825.101)" fill="#4E727C" fill-opacity="0.05"/>
<rect x="1193.61" y="508.879" width="165.973" height="165.973" transform="rotate(150 1193.61 508.879)" fill="#00C6FD" fill-opacity="0.05"/>
<rect x="1490.02" y="1385.93" width="165.046" height="165.046" transform="rotate(150 1490.02 1385.93)" fill="#4E727C" fill-opacity="0.05"/>
<rect x="1308.47" y="1071.47" width="165.046" height="165.046" transform="rotate(150 1308.47 1071.47)" fill="#4E727C" fill-opacity="0.05"/>
<rect x="1804.48" y="1204.38" width="165.046" height="165.046" transform="rotate(150 1804.48 1204.38)" fill="#4E727C" fill-opacity="0.05"/>
<rect x="1622.93" y="889.923" width="165.046" height="165.046" transform="rotate(150 1622.93 889.923)" fill="#4E727C" fill-opacity="0.05"/>
<rect x="1713.7" y="1047.15" width="165.046" height="165.046" transform="rotate(150 1713.7 1047.15)" fill="#4E727C" fill-opacity="0.05"/>
<rect x="1532.15" y="732.696" width="165.046" height="165.046" transform="rotate(150 1532.15 732.696)" fill="#4E727C" fill-opacity="0.05"/>
<rect x="1399.25" y="1228.7" width="165.046" height="165.046" transform="rotate(150 1399.25 1228.7)" fill="#4E727C" fill-opacity="0.05"/>
<rect x="1217.7" y="914.246" width="165.046" height="165.046" transform="rotate(150 1217.7 914.246)" fill="#4E727C" fill-opacity="0.05"/>
<rect x="1332.79" y="1476.7" width="165.046" height="165.046" transform="rotate(150 1332.79 1476.7)" fill="#4E727C" fill-opacity="0.05"/>
<rect x="1153.3" y="1162.8" width="168.046" height="168.046" transform="rotate(150 1153.3 1162.8)" stroke="white" stroke-opacity="0.07" stroke-width="3"/>
<rect x="1649.3" y="1295.7" width="168.046" height="168.046" transform="rotate(150 1649.3 1295.7)" stroke="white" stroke-opacity="0.07" stroke-width="3"/>
<rect x="1465.7" y="980.698" width="165.046" height="165.046" transform="rotate(150 1465.7 980.698)" fill="#4E727C" fill-opacity="0.05"/>
<rect x="1556.47" y="1137.93" width="165.046" height="165.046" transform="rotate(150 1556.47 1137.93)" fill="#4E727C" fill-opacity="0.05"/>
<rect x="1374.92" y="823.471" width="165.046" height="165.046" transform="rotate(150 1374.92 823.471)" fill="#4E727C" fill-opacity="0.05"/>
<rect x="1242.02" y="1319.48" width="165.046" height="165.046" transform="rotate(150 1242.02 1319.48)" fill="#4E727C" fill-opacity="0.05"/>
<rect x="1060.47" y="1005.02" width="165.046" height="165.046" transform="rotate(150 1060.47 1005.02)" fill="#4E727C" fill-opacity="0.05"/>
<rect x="1175.57" y="1567.48" width="165.046" height="165.046" transform="rotate(150 1175.57 1567.48)" fill="#4E727C" fill-opacity="0.05"/>
<rect x="994.018" y="1253.02" width="165.046" height="165.046" transform="rotate(150 994.018 1253.02)" fill="#4E727C" fill-opacity="0.05"/>
<rect x="1084.79" y="1410.25" width="165.046" height="165.046" transform="rotate(150 1084.79 1410.25)" fill="#4E727C" fill-opacity="0.05"/>
<rect x="903.244" y="1095.8" width="165.046" height="165.046" transform="rotate(150 903.244 1095.8)" fill="#4E727C" fill-opacity="0.05"/>
<rect x="812.234" y="939.204" width="165.046" height="165.046" transform="rotate(150 812.234 939.204)" fill="#4E727C" fill-opacity="0.05"/>
<rect x="1126.69" y="757.654" width="165.046" height="165.046" transform="rotate(150 1126.69 757.654)" fill="#4E727C" fill-opacity="0.05"/>
<rect x="945.139" y="443.2" width="165.046" height="165.046" transform="rotate(150 945.139 443.2)" fill="#4E727C" fill-opacity="0.05"/>
<rect x="1035.91" y="600.427" width="165.046" height="165.046" transform="rotate(150 1035.91 600.427)" fill="#4E727C" fill-opacity="0.05"/>
<rect x="854.363" y="285.973" width="165.046" height="165.046" transform="rotate(150 854.363 285.973)" fill="#4E727C" fill-opacity="0.05"/>
<rect x="721.461" y="781.977" width="165.046" height="165.046" transform="rotate(150 721.461 781.977)" fill="#4E727C" fill-opacity="0.05"/>
<rect x="539.91" y="467.523" width="165.046" height="165.046" transform="rotate(150 539.91 467.523)" fill="#4E727C" fill-opacity="0.05"/>
<rect x="655.008" y="1029.98" width="165.046" height="165.046" transform="rotate(150 655.008 1029.98)" fill="#4E727C" fill-opacity="0.05"/>
<rect x="473.459" y="715.525" width="165.046" height="165.046" transform="rotate(150 473.459 715.525)" fill="#4E727C" fill-opacity="0.05"/>
<rect x="969.463" y="848.429" width="165.046" height="165.046" transform="rotate(150 969.463 848.429)" fill="#4E727C" fill-opacity="0.05"/>
<rect x="787.912" y="533.975" width="165.046" height="165.046" transform="rotate(150 787.912 533.975)" fill="#4E727C" fill-opacity="0.05"/>
<rect x="878.688" y="691.202" width="165.046" height="165.046" transform="rotate(150 878.688 691.202)" fill="#4E727C" fill-opacity="0.05"/>
<rect x="697.137" y="376.748" width="165.046" height="165.046" transform="rotate(150 697.137 376.748)" fill="#4E727C" fill-opacity="0.05"/>
<rect x="564.234" y="872.752" width="165.046" height="165.046" transform="rotate(150 564.234 872.752)" fill="#4E727C" fill-opacity="0.05"/>
<rect x="382.684" y="558.298" width="165.046" height="165.046" transform="rotate(150 382.684 558.298)" fill="#4E727C" fill-opacity="0.05"/>
<rect x="497.781" y="1120.75" width="165.046" height="165.046" transform="rotate(150 497.781 1120.75)" fill="#4E727C" fill-opacity="0.05"/>
<rect x="316.23" y="806.3" width="165.046" height="165.046" transform="rotate(150 316.23 806.3)" fill="#4E727C" fill-opacity="0.05"/>
<rect x="407.006" y="963.527" width="165.046" height="165.046" transform="rotate(150 407.006 963.527)" fill="#4E727C" fill-opacity="0.05"/>
<rect x="225.457" y="649.073" width="165.046" height="165.046" transform="rotate(150 225.457 649.073)" fill="#00C6FD" fill-opacity="0.05"/>
</svg>
