<svg width="1920" height="987" viewBox="0 0 1920 987" fill="none" xmlns="http://www.w3.org/2000/svg">
<rect x="1693.69" y="800.641" width="165.973" height="165.973" transform="rotate(150 1693.69 800.641)" fill="#4E727C" fill-opacity="0.05"/>
<rect x="2009.91" y="618.07" width="165.973" height="165.973" transform="rotate(150 2009.91 618.07)" fill="#4E727C" fill-opacity="0.05"/>
<rect x="1827.34" y="301.848" width="165.973" height="165.973" transform="rotate(150 1827.34 301.848)" fill="#4E727C" fill-opacity="0.05"/>
<rect x="1918.62" y="459.959" width="165.973" height="165.973" transform="rotate(150 1918.62 459.959)" fill="#4E727C" fill-opacity="0.05"/>
<rect x="1736.05" y="143.737" width="165.973" height="165.973" transform="rotate(150 1736.05 143.737)" fill="#4E727C" fill-opacity="0.05"/>
<rect x="1602.4" y="642.53" width="165.973" height="165.973" transform="rotate(150 1602.4 642.53)" fill="#4E727C" fill-opacity="0.05"/>
<rect x="1419.83" y="326.308" width="165.973" height="165.973" transform="rotate(150 1419.83 326.308)" fill="#4E727C" fill-opacity="0.05"/>
<rect x="1535.58" y="891.926" width="165.973" height="165.973" transform="rotate(150 1535.58 891.926)" fill="#4E727C" fill-opacity="0.05"/>
<rect x="1353" y="575.704" width="165.973" height="165.973" transform="rotate(150 1353 575.704)" fill="#4E727C" fill-opacity="0.05"/>
<rect x="1851.8" y="709.355" width="165.973" height="165.973" transform="rotate(150 1851.8 709.355)" fill="#4E727C" fill-opacity="0.05"/>
<rect x="1669.23" y="393.134" width="165.973" height="165.973" transform="rotate(150 1669.23 393.134)" fill="#4E727C" fill-opacity="0.05"/>
<rect x="1760.51" y="551.244" width="165.973" height="165.973" transform="rotate(150 1760.51 551.244)" fill="#4E727C" fill-opacity="0.05"/>
<rect x="1577.94" y="235.022" width="165.973" height="165.973" transform="rotate(150 1577.94 235.022)" fill="#4E727C" fill-opacity="0.05"/>
<rect x="1444.29" y="733.815" width="165.973" height="165.973" transform="rotate(150 1444.29 733.815)" fill="#00C6FD" fill-opacity="0.05"/>
<rect x="1261.72" y="417.593" width="165.973" height="165.973" transform="rotate(150 1261.72 417.593)" fill="#4E727C" fill-opacity="0.05"/>
<rect x="1377.46" y="983.211" width="165.973" height="165.973" transform="rotate(150 1377.46 983.211)" fill="#4E727C" fill-opacity="0.05"/>
<rect x="1286.18" y="825.101" width="165.973" height="165.973" transform="rotate(150 1286.18 825.101)" fill="#4E727C" fill-opacity="0.05"/>
<rect x="1103.61" y="508.879" width="165.973" height="165.973" transform="rotate(150 1103.61 508.879)" fill="#00C6FD" fill-opacity="0.05"/>
<rect x="1218.47" y="1071.47" width="165.046" height="165.046" transform="rotate(150 1218.47 1071.47)" fill="#4E727C" fill-opacity="0.05"/>
<rect x="1532.93" y="889.923" width="165.046" height="165.046" transform="rotate(150 1532.93 889.923)" fill="#4E727C" fill-opacity="0.05"/>
<rect x="1623.7" y="1047.15" width="165.046" height="165.046" transform="rotate(150 1623.7 1047.15)" fill="#4E727C" fill-opacity="0.05"/>
<rect x="1442.15" y="732.696" width="165.046" height="165.046" transform="rotate(150 1442.15 732.696)" fill="#4E727C" fill-opacity="0.05"/>
<rect x="1127.7" y="914.246" width="165.046" height="165.046" transform="rotate(150 1127.7 914.246)" fill="#4E727C" fill-opacity="0.05"/>
<rect x="1375.7" y="980.698" width="165.046" height="165.046" transform="rotate(150 1375.7 980.698)" fill="#4E727C" fill-opacity="0.05"/>
<rect x="1284.92" y="823.471" width="165.046" height="165.046" transform="rotate(150 1284.92 823.471)" fill="#4E727C" fill-opacity="0.05"/>
<rect x="970.47" y="1005.02" width="165.046" height="165.046" transform="rotate(150 970.47 1005.02)" fill="#4E727C" fill-opacity="0.05"/>
<rect x="813.243" y="1095.8" width="165.046" height="165.046" transform="rotate(150 813.243 1095.8)" fill="#4E727C" fill-opacity="0.05"/>
<rect x="722.235" y="939.204" width="165.046" height="165.046" transform="rotate(150 722.235 939.204)" fill="#4E727C" fill-opacity="0.05"/>
<rect x="1036.69" y="757.654" width="165.046" height="165.046" transform="rotate(150 1036.69 757.654)" fill="#4E727C" fill-opacity="0.05"/>
<rect x="855.14" y="443.2" width="165.046" height="165.046" transform="rotate(150 855.14 443.2)" fill="#4E727C" fill-opacity="0.05"/>
<rect x="945.915" y="600.427" width="165.046" height="165.046" transform="rotate(150 945.915 600.427)" fill="#4E727C" fill-opacity="0.05"/>
<rect x="764.364" y="285.973" width="165.046" height="165.046" transform="rotate(150 764.364 285.973)" fill="#4E727C" fill-opacity="0.05"/>
<rect x="631.46" y="781.977" width="165.046" height="165.046" transform="rotate(150 631.46 781.977)" fill="#4E727C" fill-opacity="0.05"/>
<rect x="449.911" y="467.523" width="165.046" height="165.046" transform="rotate(150 449.911 467.523)" fill="#4E727C" fill-opacity="0.05"/>
<rect x="565.009" y="1029.98" width="165.046" height="165.046" transform="rotate(150 565.009 1029.98)" fill="#4E727C" fill-opacity="0.05"/>
<rect x="383.458" y="715.525" width="165.046" height="165.046" transform="rotate(150 383.458 715.525)" fill="#4E727C" fill-opacity="0.05"/>
<rect x="879.462" y="848.429" width="165.046" height="165.046" transform="rotate(150 879.462 848.429)" fill="#4E727C" fill-opacity="0.05"/>
<rect x="697.913" y="533.975" width="165.046" height="165.046" transform="rotate(150 697.913 533.975)" fill="#4E727C" fill-opacity="0.05"/>
<rect x="788.688" y="691.202" width="165.046" height="165.046" transform="rotate(150 788.688 691.202)" fill="#4E727C" fill-opacity="0.05"/>
<rect x="607.138" y="376.748" width="165.046" height="165.046" transform="rotate(150 607.138 376.748)" fill="#4E727C" fill-opacity="0.05"/>
<rect x="474.233" y="872.752" width="165.046" height="165.046" transform="rotate(150 474.233 872.752)" fill="#4E727C" fill-opacity="0.05"/>
<rect x="292.684" y="558.298" width="165.046" height="165.046" transform="rotate(150 292.684 558.298)" fill="#4E727C" fill-opacity="0.05"/>
<rect x="407.782" y="1120.75" width="165.046" height="165.046" transform="rotate(150 407.782 1120.75)" fill="#4E727C" fill-opacity="0.05"/>
<rect x="226.231" y="806.3" width="165.046" height="165.046" transform="rotate(150 226.231 806.3)" fill="#4E727C" fill-opacity="0.05"/>
<rect x="317.007" y="963.527" width="165.046" height="165.046" transform="rotate(150 317.007 963.527)" fill="#4E727C" fill-opacity="0.05"/>
<rect x="135.456" y="649.073" width="165.046" height="165.046" transform="rotate(150 135.456 649.073)" fill="#00C6FD" fill-opacity="0.05"/>
</svg>
