<svg width="48" height="48" viewBox="0 0 48 48" fill="none" xmlns="http://www.w3.org/2000/svg">
<g clip-path="url(#clip0_356_708)">
<path d="M48 0H0V48H48V0Z" fill="#2E2C2B"/>
<path d="M11.4546 16.0534C11.4947 15.6576 11.3437 15.2663 11.0482 14.9999L8.03732 11.3729V10.8311H17.386L24.612 26.6787L30.9649 10.8311H39.877V11.3729L37.3027 13.841C37.0808 14.0102 36.9707 14.2883 37.0167 14.5634V32.6987C36.9707 32.9739 37.0808 33.2519 37.3027 33.4211L39.8168 35.8893V36.4311H27.1712V35.8893L29.7756 33.3609C30.0315 33.105 30.0316 33.0298 30.0316 32.6385V17.9798L22.7905 36.3709H21.8119L13.3816 17.9798V30.3057C13.3113 30.8239 13.4834 31.3457 13.8483 31.7204L17.2355 35.8291V36.3709H7.63086V35.8291L11.0181 31.7204C11.3803 31.345 11.5423 30.8199 11.4546 30.3057V16.0534Z" fill="white"/>
</g>
<defs>
<clipPath id="clip0_356_708">
<rect width="48" height="48" fill="white"/>
</clipPath>
</defs>
</svg>
