<svg width="48" height="48" viewBox="0 0 48 48" fill="none" xmlns="http://www.w3.org/2000/svg">
<rect width="48" height="48" fill="#2E2C2B"/>
<path d="M10.7779 22.4521L28.0522 15.3285C29.7574 14.5864 35.5403 12.2119 35.5403 12.2119C35.5403 12.2119 38.2092 11.173 37.9868 13.696C37.9127 14.7348 37.3196 18.3708 36.7265 22.3037L34.873 33.9537C34.873 33.9537 34.7247 35.6604 33.4644 35.9573C32.204 36.2541 30.1281 34.9184 29.7574 34.6216C29.4609 34.399 24.197 31.0598 22.2694 29.4273C21.7505 28.982 21.1573 28.0916 22.3436 27.0527C25.0126 24.604 28.2005 21.5616 30.1281 19.6323C31.0178 18.7419 31.9075 16.6641 28.2005 19.1871L17.747 26.2365C17.747 26.2365 16.5607 26.9785 14.3366 26.3107C12.1124 25.6429 9.51756 24.7524 9.51756 24.7524C9.51756 24.7524 7.73823 23.6393 10.7779 22.4521Z" fill="white"/>
</svg>
