<svg width="48" height="48" viewBox="0 0 48 48" fill="none" xmlns="http://www.w3.org/2000/svg">
<rect width="48" height="48" fill="#2E2C2B"/>
<path d="M36.4107 15.539C36.0023 15.7262 35.5823 15.8842 35.1533 16.0125C35.6613 15.4187 36.0486 14.7201 36.285 13.9556C36.338 13.7842 36.2831 13.5966 36.1468 13.4845C36.0107 13.3724 35.8215 13.3589 35.6717 13.4507C34.7604 14.0093 33.7773 14.4107 32.7464 14.6455C31.708 13.5968 30.2977 13 28.8396 13C25.762 13 23.2581 15.5877 23.2581 18.7683C23.2581 19.0188 23.2735 19.2679 23.3038 19.5136C19.4848 19.167 15.9343 17.2271 13.4962 14.1361C13.4093 14.0259 13.2754 13.9666 13.1384 13.9779C13.0013 13.989 12.8781 14.0689 12.8088 14.1918C12.3143 15.0687 12.0528 16.0717 12.0528 17.0922C12.0528 18.4821 12.533 19.8009 13.3812 20.8313C13.1233 20.739 12.873 20.6236 12.6342 20.4866C12.5059 20.4128 12.3494 20.4139 12.222 20.4894C12.0945 20.5649 12.0146 20.7038 12.0112 20.8556C12.0107 20.8812 12.0107 20.9067 12.0107 20.9326C12.0107 23.0073 13.0911 24.8752 14.7429 25.8933C14.601 25.8786 14.4592 25.8574 14.3183 25.8296C14.173 25.8009 14.0236 25.8535 13.9257 25.968C13.8276 26.0824 13.7951 26.2419 13.8403 26.3875C14.4517 28.3604 16.0259 29.8115 17.9289 30.2539C16.3505 31.2756 14.5456 31.8108 12.6508 31.8108C12.2554 31.8108 11.8578 31.7868 11.4686 31.7392C11.2753 31.7154 11.0904 31.8334 11.0246 32.0234C10.9588 32.2135 11.0285 32.4254 11.193 32.5344C13.6272 34.1474 16.4418 35 19.3324 35C25.015 35 28.5698 32.2306 30.5513 29.9073C33.0221 27.0103 34.4392 23.1758 34.4392 19.3871C34.4392 19.2289 34.4368 19.069 34.4321 18.9097C35.407 18.1506 36.2463 17.232 36.9292 16.1761C37.033 16.0158 37.0217 15.8039 36.9016 15.6562C36.7815 15.5085 36.5815 15.4608 36.4107 15.539Z" fill="white"/>
</svg>
