<svg width="120" height="120" viewBox="0 0 120 120" fill="none" xmlns="http://www.w3.org/2000/svg"><g clip-path="url(#a)" fill="#fff"><path opacity=".6" d="M55.6 33.39v-.19l.04-.08.03-.04a.64.64 0 0 1 .05-.06l.04-.04a.45.45 0 0 1 .06-.05l14.13-7.98a.5.5 0 0 1 .7.19c.04.07.06.16.06.25v15.66l8.4 4.74V17.16a4 4 0 0 0-5.93-3.53L52.03 25.58a9.55 9.55 0 0 0-4.86 8.38V64.4l8.4-4.75.04-26.27Z"/><path d="M94.03 38.26a.51.51 0 0 1 .26.45.52.52 0 0 1-.26.45L80.7 46.69l8.38 4.73 16.27-9.2a3.95 3.95 0 0 0 2.05-3.51 4 4 0 0 0-2.05-3.52L84.3 23.3a9.4 9.4 0 0 0-4.13-1.2v8.33l13.86 7.84ZM33.08 67.98v4.45l13.1-7.4V33.98a10.73 10.73 0 0 1 5.4-9.3L72.7 12.76c.54-.3 1.14-.5 1.75-.6L63 5.68a3.9 3.9 0 0 0-3.9 0L37.94 17.62A9.56 9.56 0 0 0 33.08 26v41.98Z"/><path d="m70 41.82-13.37-7.55v14.77l27.6 15.6a10.6 10.6 0 0 1 5.38 9.29v23.58a5 5 0 0 1-.42 2.02l11.53-6.52a3.95 3.95 0 0 0 1.99-3.48V65.95a9.68 9.68 0 0 0-4.86-8.38l-9.01-5.1L70 41.83Z"/><path opacity=".6" d="m79.91 72.86.05.04.08.07.05.08.05.09v16.14a.52.52 0 0 1-.51.52.5.5 0 0 1-.25-.07L65.5 81.89l-8.37 4.73 25.47 14.4a3.9 3.9 0 0 0 3.96-.05 3.96 3.96 0 0 0 1.97-3.47V73.92a9.68 9.68 0 0 0-4.86-8.38L56.59 50.22v9.48l23.32 13.16ZM15.33 26.88a3.82 3.82 0 0 0-3.87.05 3.87 3.87 0 0 0-1.91 3.38v23.74c0 1.55.37 3.07 1.08 4.44l7.31-4.13V38.69a.52.52 0 0 1 .25-.44.5.5 0 0 1 .51 0l13.36 7.55v-9.46l-16.73-9.46Z"/><path d="m33.27 21.07-3.82-2.17a3.82 3.82 0 0 0-3.9.06l-11.4 6.44a4.8 4.8 0 0 1 1.68.58l16.24 9.18V26c0-1.72.41-3.42 1.2-4.94Z"/><path opacity=".6" d="M105.89 43.12 90.15 52l8.2 4.64a10.6 10.6 0 0 1 3.66 3.45l3.38-1.9a3.96 3.96 0 0 0 2.04-3.52v-12.9c-.42.54-.95 1-1.54 1.34Zm-58.67 67.69a4.01 4.01 0 0 0 1.96 3.47 3.91 3.91 0 0 0 3.97.04l12.14-6.86 9-5.09a9.54 9.54 0 0 0 3.26-3.05l-7.3-4.13-13.88 7.85h-.07a.44.44 0 0 1-.35 0h-.05a.47.47 0 0 1-.22-.21v-.03a.58.58 0 0 1-.03-.1V87.51l-8.4 4.74-.03 18.56Z"/><path d="m6.89 68.84 21.05 11.9a9.5 9.5 0 0 0 9.28 0L64.5 65.31l-8.37-4.73-23.28 13.16a.24.24 0 0 1-.08.03h-.35a.26.26 0 0 1-.07-.03l-14.11-7.98a.51.51 0 0 1-.2-.71.51.51 0 0 1 .2-.2l13.86-7.83v-9.46L18.74 55.1l-11.8 6.67a3.96 3.96 0 0 0-2.05 3.52 4 4 0 0 0 2 3.54Z"/><path opacity=".6" d="m55.87 86.17 22.75-12.86-13.08-7.4-27.82 15.73a10.42 10.42 0 0 1-10.28 0L6.38 69.74c-.6-.34-1.11-.8-1.53-1.35v12.9a4.02 4.02 0 0 0 2.05 3.52l21.05 11.9a9.5 9.5 0 0 0 9.28 0l18.64-10.53v-.01Z"/><path d="m46.19 92.81-8.48 4.8c-1.42.8-3 1.25-4.63 1.32v3.88a4.06 4.06 0 0 0 2.05 3.52l11.48 6.49a5.13 5.13 0 0 1-.42-2.01v-18Z"/></g><defs><clipPath id="a"><path fill="#fff" d="M4.84 5.16h103.23v109.68H4.84z"/></clipPath></defs></svg>