<svg xmlns="http://www.w3.org/2000/svg" xmlns:xlink="http://www.w3.org/1999/xlink" id="Слой_1" data-name="Слой 1" viewBox="0 0 480 320"><defs><linearGradient id="Безымянный_градиент_5" x1="80.93" y1="148.1" x2="218.64" y2="148.1" gradientTransform="translate(1.13 -1.5)" gradientUnits="userSpaceOnUse"><stop offset="0" stop-color="#502ef2"/><stop offset="1" stop-color="#518efa"/></linearGradient><linearGradient id="Безымянный_градиент_63" x1="-1.04" y1="554.94" x2="-.09" y2="554.94" gradientTransform="matrix(0 218 218 0 -120995.12 288.31)" gradientUnits="userSpaceOnUse"><stop offset="0" stop-color="#505df2"/><stop offset="1" stop-color="#518efa"/></linearGradient><linearGradient id="Безымянный_градиент_5-3" x1="-1.8" y1="554.89" x2="-.85" y2="554.89" gradientTransform="matrix(0 160 160 0 -88663.81 371.67)" xlink:href="#Безымянный_градиент_5"/><linearGradient id="Безымянный_градиент_60" x1="82.73" y1="153.8" x2="417.55" y2="153.8" gradientTransform="translate(1.13 -1.5)" gradientUnits="userSpaceOnUse"><stop offset="0" stop-color="#508af2"/><stop offset="1" stop-color="#5198fa"/></linearGradient><linearGradient id="Безымянный_градиент_63-2" x1="82.73" y1="147.69" x2="417.55" y2="147.69" gradientTransform="translate(1.13 -1.5)" xlink:href="#Безымянный_градиент_63"/><linearGradient id="Безымянный_градиент_39" x1="215.67" y1="217.09" x2="411.37" y2="217.09" gradientTransform="translate(1.13 -1.5)" gradientUnits="userSpaceOnUse"><stop offset="0" stop-color="#5032f2"/><stop offset="1" stop-color="#51d7fa"/></linearGradient><linearGradient id="Безымянный_градиент_57" x1="108.71" y1="29.8" x2="272.84" y2="29.8" gradientTransform="translate(1.13 -1.5)" gradientUnits="userSpaceOnUse"><stop offset="0" stop-color="#51d7fa"/><stop offset="1" stop-color="#5081f6"/></linearGradient><linearGradient id="Безымянный_градиент_39-2" x1="-528.94" y1="752.86" x2="-332.29" y2="752.86" gradientTransform="matrix(0 1 1 0 -640.45 630.95)" xlink:href="#Безымянный_градиент_39"/><linearGradient id="Безымянный_градиент_9" x1="567.09" y1="237.92" x2="567.09" y2="82.31" gradientUnits="userSpaceOnUse"><stop offset=".04" stop-color="#5082f6"/><stop offset="1" stop-color="#51d7fa"/></linearGradient><linearGradient id="Безымянный_градиент_9-2" x1="735.89" y1="236.82" x2="735.89" y2="81.76" xlink:href="#Безымянный_градиент_9"/><linearGradient id="Безымянный_градиент_9-3" x1="844.67" y1="236.82" x2="844.67" y2="35.89" xlink:href="#Безымянный_градиент_9"/><linearGradient id="Безымянный_градиент_9-4" x1="989.25" y1="237.92" x2="989.25" y2="82.31" xlink:href="#Безымянный_градиент_9"/><linearGradient id="Безымянный_градиент_9-5" x1="1147.68" y1="236.82" x2="1147.68" y2="81.76" xlink:href="#Безымянный_градиент_9"/><linearGradient id="Безымянный_градиент_9-6" x1="1278.63" y1="302.36" x2="1278.63" y2="83.29" xlink:href="#Безымянный_градиент_9"/><clipPath id="clip-path" transform="translate(-2.71 -5.53)"><path d="M126.78 19.23a100.86 100.86 0 0 0-43.14 10.25q-4.71 3-9.28 6.3a150.18 150.18 0 0 0-35.55 36.93 150.66 150.66 0 0 0 49.79 215q4.47 2.55 9.09 4.8a101.3 101.3 0 0 0 120.18-26.89 101.12 101.12 0 0 1-87.18-41.12c-.68-.93-1.33-1.87-2-2.81A101.21 101.21 0 0 1 211.63 63.3a101.11 101.11 0 0 0-82.79-44.08h-2.06" style="fill:none"/></clipPath><clipPath id="clip-path-2" transform="translate(-2.71 -5.53)"><path class="cls-2" d="M96.24 227.67c42.53 48.41 115.39 38.83 121.63 37.91-56.23 1.61-103.24-41.63-106.64-94.72-3.13-48.86 31.43-94.79 81.83-105.74a123.72 123.72 0 0 0-21.95-17.92 126.92 126.92 0 0 0-51.41-18.71c-62.09 61-66.38 150.33-23.46 199.18"/></clipPath><style>.cls-2{fill:url(#Безымянный_градиент_5)}</style></defs><g style="clip-path:url(#clip-path)"><path transform="rotate(-90 107.03 159.11)" style="fill:url(#Безымянный_градиент_63)" d="M-30.24 53.06h282.81v214.89H-30.24z"/></g><path class="cls-2" d="M93.53 222.14c42.53 48.41 115.39 38.83 121.63 37.91-56.23 1.61-103.24-41.63-106.64-94.72-3.13-48.86 31.43-94.79 81.83-105.74a123.72 123.72 0 0 0-21.95-17.92 126.92 126.92 0 0 0-51.41-18.71c-62.09 61-66.38 150.33-23.46 199.18"/><g style="clip-path:url(#clip-path-2)"><path transform="rotate(-90 131.95 150.94)" style="fill:url(#Безымянный_градиент_5-3)" d="M12.36 69.75h247.45v165.16H12.36z"/></g><path d="M383.61 250.5a103.22 103.22 0 0 1-40.48-24.87c-1.8-1.8-3.22-3.37-4.21-4.48-33.62-34.5-18.32-77.57-34.83-118C282 43.11 222.91 7 163 6.58a145.86 145.86 0 0 0-44.72 6.61 140.21 140.21 0 0 0-34.6 16.29c40.7-10.14 114.32 14.73 129.08 70.66a100.92 100.92 0 0 1 4.79 29.57c-5.05 41.94-.09 85.22 26 120.29a78.77 78.77 0 0 1 .03.05V250c36.3 56.71 107.93 68 154.49 27a110.79 110.79 0 0 0 18.77-21.57 101.27 101.27 0 0 1-33.23-4.93Z" transform="translate(-2.71 -5.53)" style="fill:url(#Безымянный_градиент_60)"/><path d="M83.64 29.48a159.71 159.71 0 0 1 56.09-6.63s2.78.18 5.5.43c18 1.67 66 8.8 94.57 44 35.93 44.26 19.55 107.2 61.49 150.9 6.63 6.91 38.9 40.54 85.36 41.35a101.89 101.89 0 0 0 30.21-4.12c-.37.55-.87 1.29-1.47 2.14 0 0-2.3 3.29-4.78 6.33-2.29 2.83-39 19.89-95.16-.12-46.2-16.45-76.95-47.71-85.7-71.36-.58-1.57-1.46-4.18-1.66-4.77-3.67-10.76-11.48-35.74-11.06-54.25a105.06 105.06 0 0 0-2.81-28.22s-1.54-6.16-3.52-11.6a85.16 85.16 0 0 0-17.64-28.44c-.55-.6-2.49-2.69-5.17-5.18-13.44-12.44-28.16-18.67-35.6-21.76-10.68-4.42-28.41-11.52-51.66-10.63-4 .15-8 .63-8 .63-3.53.38-6.55.82-8.99 1.3Z" transform="translate(-2.71 -5.53)" style="fill:url(#Безымянный_градиент_63-2)"/><path d="M243.91 206.49A150 150 0 0 1 217 133.38c-4.36 40.83 1 82.69 26.45 116.78a78.77 78.77 0 0 1 .03.05.1.1 0 0 0 0-.05c36.31 56.71 107.94 68 154.5 27a108.62 108.62 0 0 0 12.64-13.26 150.58 150.58 0 0 1-166.71-57.41Z" transform="translate(-2.71 -5.53)" style="fill:url(#Безымянный_градиент_39)"/><path d="M109.72 16.17a232.61 232.61 0 0 1 65.45 0 236.33 236.33 0 0 1 98.41 38.05 145.53 145.53 0 0 0-58.13-39.93c-49.65-18.35-93.59-2.87-105.73 1.88Z" transform="translate(-2.71 -5.53)" style="fill:url(#Безымянный_градиент_57)"/><path d="M42.22 246.21a150 150 0 0 0 46.38 41.46q4.47 2.55 9.09 4.8a101.29 101.29 0 0 0 120.17-26.89C213.6 267.07 138 291.88 75 240.39c-62.32-50.91-54-128.71-53.35-133.68a150.34 150.34 0 0 0 20.57 139.5Z" transform="translate(-2.71 -5.53)" style="fill:url(#Безымянный_градиент_39-2)"/></svg>